<svg version="1.1" id="Capa_1" xmlns="http://www.w3.org/2000/svg" xmlns:xlink="http://www.w3.org/1999/xlink" x="0px" y="0px" viewBox="0 0 512 512" style="enable-background:new 0 0 512 512;" xml:space="preserve">
<g>
<path style="fill: rgb(255, 255, 255);" d="M512,320c0-70.688-71.648-128-160-128s-160,57.312-160,128s71.648,128,160,128
		c14.528,0,28.352-2.048,41.76-4.96L480,480l-29.824-59.616C487.552,396.96,512,360.928,512,320z" id="id_101"></path>
<path style="fill: rgb(255, 255, 255);" d="M192,32C85.952,32,0,103.648,0,192c0,50.944,28.736,96.128,73.312,125.376L48,368l68.96-29.536
		c14.784,5.248,30.144,9.568,46.56,11.584c-2.24-9.76-3.52-19.776-3.52-30.048c0-88.224,86.112-160,192-160
		c9.696,0,19.168,0.8,28.512,1.952C363.616,87.968,285.696,32,192,32z" id="id_102"></path>
</g>
<g>
<circle style="fill: rgb(0, 0, 0);" cx="128" cy="128" r="24" id="id_103"></circle>
<circle style="fill: rgb(0, 0, 0);" cx="256" cy="128" r="24" id="id_104"></circle>
<circle style="fill: rgb(0, 0, 0);" cx="304" cy="288" r="24" id="id_105"></circle>
<circle style="fill: rgb(0, 0, 0);" cx="400" cy="288" r="24" id="id_106"></circle>
</g>
<g>
</g>
<g>
</g>
<g>
</g>
<g>
</g>
<g>
</g>
<g>
</g>
<g>
</g>
<g>
</g>
<g>
</g>
<g>
</g>
<g>
</g>
<g>
</g>
<g>
</g>
<g>
</g>
<g>
</g>
</svg>